# xmcd CD database file
#
# Track frame offsets:
#	150
#	28982
#	42935
#	55480
#	62731
#
# Disc length: 1045 seconds
#
# Revision: 0
# Processed by: cddbd v1.4PL0 Copyright (c) Steve Scherf et al.
# Submitted via: CDex 1.50
#
DISCID=45041305
DTITLE=Reza Manzoori - Ambient Womb Short
DYEAR=2003
DGENRE=New Age
TTITLE0=Arrival
TTITLE1=Origins
TTITLE2=Wave
TTITLE3=Valley
TTITLE4=Breath
EXTD=YEAR: 2003
EXTT0=
EXTT1=
EXTT2=
EXTT3=
EXTT4=
PLAYORDER=
